<svg width="46" height="50" viewBox="0 0 46 50" fill="none" xmlns="http://www.w3.org/2000/svg">
<g id="Group 42">
<g id="bag">
<path id="Vector" d="M34.2612 13.0257H41.2015C42.0099 12.9868 42.8142 13.1572 43.5264 13.518C44.2387 13.8788 44.8316 14.4163 45.2405 15.0718C45.7058 15.8123 45.9665 16.6502 45.999 17.5093C45.999 24.8574 45.999 32.1877 45.999 39.5358C46.0119 40.1232 45.8981 40.7071 45.6645 41.2522C45.4308 41.7973 45.0821 42.2924 44.6393 42.7079C44.1965 43.1234 43.6687 43.4506 43.0877 43.6698C42.5067 43.8891 41.8845 43.9959 41.2584 43.9838H5.74163C5.11645 43.9983 4.49459 43.8938 3.91366 43.6766C3.33274 43.4593 2.80482 43.1338 2.36173 42.7197C1.91865 42.3057 1.56959 41.8116 1.33572 41.2674C1.10184 40.7232 0.987994 40.1402 1.001 39.5536C1.001 32.1877 1.001 24.8217 1.001 17.4558C0.99556 16.3085 1.46852 15.2047 2.31891 14.3803C3.1693 13.5558 4.32965 13.076 5.55199 13.0435C7.6758 13.0435 9.79957 13.0435 11.9234 13.0435H12.8526C12.9474 12.5275 13.0232 12.0471 13.137 11.5845C13.3861 10.3317 14.0311 9.17823 14.9881 8.27393C15.9451 7.36962 17.17 6.75638 18.5034 6.51384C21.6664 5.82872 24.9543 5.82872 28.1174 6.51384C29.6684 6.72223 31.0981 7.4182 32.1728 8.48796C33.2475 9.55773 33.9035 10.938 34.0337 12.403C34.0596 12.6078 34.104 12.8101 34.1664 13.0079L34.2612 13.0257ZM28.4018 28.0421C28.4018 28.6114 28.4018 29.0384 28.4018 29.4654C28.4122 29.8676 28.3354 30.2677 28.1762 30.6412C28.0169 31.0147 27.7784 31.354 27.4752 31.6385C27.172 31.923 26.8104 32.1467 26.4123 32.2962C26.0142 32.4456 25.5879 32.5177 25.1592 32.5079H21.8029C21.387 32.5103 20.9747 32.4357 20.5895 32.2886C20.2044 32.1414 19.8539 31.9245 19.5581 31.6502C19.2623 31.376 19.0269 31.0498 18.8655 30.6902C18.704 30.3306 18.6196 29.9447 18.6171 29.5545V28.0421H12.1889C10.7127 28.0999 9.24921 27.7647 7.96745 27.0752C6.68568 26.3857 5.63791 25.3701 4.94518 24.1457L3.97807 22.5444H3.8264V23.0782C3.8264 28.4158 3.8264 33.7534 3.8264 39.091C3.8264 40.6389 4.56595 41.315 6.21569 41.315H40.7843C42.4909 41.315 43.2115 40.6388 43.2115 39.0375V22.5621C42.8032 22.9883 42.4529 23.4605 42.1686 23.9678C41.477 25.2524 40.4029 26.321 39.0768 27.0442C37.7506 27.7674 36.2293 28.1141 34.6974 28.0421H28.4018ZM28.7052 25.3022H35.1714C36.0438 25.3259 36.9061 25.1223 37.6626 24.714C38.4191 24.3057 39.0403 23.7087 39.457 22.9892C40.5568 21.21 41.6187 19.4308 42.6996 17.6516C43.1736 16.851 43.003 16.2639 42.1117 15.8724C41.7159 15.7155 41.2899 15.6368 40.8602 15.6411H6.13983C5.76046 15.6417 5.38334 15.6956 5.02105 15.8012C4.82786 15.8466 4.64953 15.936 4.50184 16.0614C4.35415 16.1868 4.24165 16.3443 4.17419 16.5201C4.10673 16.6959 4.08641 16.8845 4.11505 17.0695C4.14369 17.2544 4.22036 17.4299 4.33836 17.5804C5.41923 19.3596 6.48113 21.1388 7.54303 22.8113C7.95949 23.5504 8.58958 24.1645 9.36099 24.5831C10.1324 25.0016 11.0139 25.2077 11.9044 25.1776H18.5792C18.5792 24.9463 18.5792 24.804 18.5792 24.6439C18.5652 24.2355 18.6422 23.8289 18.8053 23.45C18.9684 23.0711 19.214 22.7284 19.5263 22.4437C19.8387 22.159 20.2109 21.9386 20.6192 21.7967C21.0276 21.6547 21.463 21.5942 21.8977 21.6192H25.3299C25.7798 21.5979 26.2279 21.6867 26.6301 21.877C27.0324 22.0673 27.375 22.3525 27.6243 22.7045C28.0744 23.5351 28.4364 24.4052 28.7052 25.3022ZM30.2601 12.9901C30.3117 12.3097 30.0977 11.6348 29.6581 11.0914C29.2185 10.548 28.5833 10.1731 27.8709 10.0366C25.7693 9.5128 23.5779 9.38576 21.4236 9.66295C20.4253 9.75995 19.4441 9.97525 18.5034 10.3035C17.9356 10.5056 17.4558 10.8795 17.1399 11.366C16.8239 11.8526 16.6899 12.4241 16.7588 12.9901H30.2601ZM25.4816 27.2237C25.4816 26.4943 25.4816 25.7826 25.4816 25.0709C25.4816 24.6439 25.3678 24.4126 24.8368 24.4304C23.9456 24.4304 23.0544 24.4304 22.1442 24.4304C21.7081 24.4304 21.4994 24.5549 21.5184 24.9997C21.5184 26.4231 21.5184 27.8464 21.5184 29.2876C21.5184 29.6968 21.708 29.8035 22.1062 29.8035H24.8748C25.3489 29.8035 25.4816 29.6256 25.4816 29.1986C25.4816 28.7716 25.4816 27.8642 25.4816 27.2059V27.2237Z" fill="#D22429"/>
</g>
</g>
</svg>
