<svg width="50" height="51" viewBox="0 0 50 51" fill="none" xmlns="http://www.w3.org/2000/svg">
<g id="Group 38">
<g id="chat">
<path id="Vector" d="M16.6194 9.91329C19.2632 9.9232 21.8805 10.4406 24.3293 11.4374C24.75 11.6023 25.2174 11.6023 25.6381 11.4374C32.4516 8.89129 38.9423 9.32161 44.8592 13.7324C46.2045 14.6327 47.3461 15.8049 48.2104 17.1735C49.0748 18.5421 49.6426 20.0766 49.8775 21.6782C50.1123 23.2797 50.0089 24.9127 49.5738 26.4719C49.1387 28.031 48.3816 29.4815 47.3514 30.7301C47.1412 31.0666 47.0704 31.4718 47.1542 31.8597C47.6384 34.2623 48.1942 36.665 48.7141 39.0318C48.8255 39.4137 48.8066 39.8218 48.6605 40.1918C48.5145 40.5619 48.2495 40.8728 47.9073 41.0757C47.5676 41.2692 47.1702 41.3359 46.786 41.2636C46.4018 41.1914 46.0557 40.985 45.8095 40.6813C44.2496 39.1393 42.6897 37.5974 41.1657 36.0195C41.0224 35.8387 40.8232 35.7106 40.5992 35.6554C40.3752 35.6003 40.1393 35.6211 39.9285 35.7147C35.254 37.3382 30.1436 37.1722 25.5844 35.2485C25.2122 35.1228 24.809 35.1228 24.4369 35.2485C19.9076 37.1619 14.831 37.3343 10.1824 35.7326C9.93412 35.6178 9.65378 35.5927 9.389 35.6613C9.12422 35.7299 8.89135 35.8882 8.73008 36.1092C7.29568 37.5974 5.80746 39.0496 4.33719 40.5199C3.53034 41.3268 2.81319 41.4882 2.0422 41.0399C1.68899 40.8182 1.42412 40.4802 1.29321 40.0842C1.16231 39.6882 1.17352 39.259 1.32495 38.8704C1.84492 36.5036 2.3828 34.1368 2.86691 31.6983C2.93995 31.3392 2.86916 30.9658 2.66971 30.6584C-1.81281 25.0284 -0.557669 17.5515 5.73579 13.1407C8.94006 10.9599 12.7443 9.83184 16.6194 9.91329ZM46.4908 38.8345L46.7598 38.6911C46.2399 36.3243 45.7199 33.9575 45.182 31.519C45.0969 31.225 45.0884 30.9142 45.1575 30.616C45.2265 30.3178 45.3707 30.0423 45.5764 29.8157C46.473 28.8483 47.1618 27.7072 47.6 26.4631C48.0382 25.219 48.2166 23.8982 48.1242 22.5824C48.0317 21.2666 47.6705 19.9838 47.0626 18.8132C46.4548 17.6425 45.6133 16.609 44.5903 15.7764C41.5188 13.2172 37.6658 11.7831 33.6685 11.7114C29.6712 11.6397 25.7692 12.9346 22.608 15.3819C21.3944 16.3025 20.4045 17.4854 19.7122 18.8422C19.0198 20.1989 18.6429 21.6946 18.6096 23.2174C18.598 24.8764 19.0023 26.5119 19.7853 27.9745C20.5683 29.4372 21.7051 30.6804 23.0921 31.5908C25.5023 33.3669 28.3313 34.4887 31.3038 34.8469C34.2762 35.2051 37.2907 34.7876 40.0539 33.6348C40.3469 33.4731 40.6878 33.4204 41.0161 33.486C41.3443 33.5517 41.6386 33.7314 41.8469 33.9934C43.353 35.6788 44.913 37.2566 46.4908 38.8345ZM22.9127 33.8858C19.2371 31.2142 16.7807 28.0047 16.7807 23.3967C16.7807 18.7887 19.2551 15.5075 22.8769 12.8897C20.1802 11.8947 17.2838 11.5626 14.4318 11.9215C10.8883 12.2479 7.56176 13.7721 5.0006 16.2426C3.22952 17.8014 2.11249 19.9716 1.87312 22.3188C1.63374 24.666 2.28974 27.017 3.70968 28.9012C4.21379 29.4608 4.55269 30.1492 4.68881 30.89C4.82493 31.6307 4.75291 32.3947 4.48066 33.0969C4.48066 33.1865 4.48066 33.2762 4.48066 33.3479C4.0862 35.1409 3.70968 36.9339 3.26143 38.942L4.08614 38.207C5.44883 36.8443 6.8295 35.4995 8.17425 34.101C8.38598 33.8442 8.67766 33.6658 9.00269 33.5943C9.32772 33.5228 9.66733 33.5623 9.96726 33.7065C14.1036 35.3436 18.6967 35.4074 22.8769 33.8858H22.9127Z" fill="#D22429"/>
</g>
</g>
</svg>
