<svg width="50" height="51" viewBox="0 0 50 51" fill="none" xmlns="http://www.w3.org/2000/svg">
<g id="Group 39">
<g id="flower">
<path id="Vector" d="M21.1871 41.9138C22.0418 39.8535 22.8353 37.8696 23.6747 35.8857C24.3942 34.3237 24.4656 32.5403 23.8731 30.9259C23.6596 30.1695 23.1693 29.5211 22.4996 29.1098C22.0215 28.8405 21.6217 28.4513 21.3398 27.9805C21.1632 27.6201 20.8684 27.3312 20.5047 27.1618C20.1409 26.9924 19.73 26.9528 19.3406 27.0496C18.6172 27.1924 17.8693 27.1463 17.1689 26.9157C16.4686 26.6851 15.8395 26.2779 15.3425 25.7333C14.8454 25.1887 14.4972 24.5252 14.3314 23.8067C14.1656 23.0883 14.1879 22.3393 14.396 21.6319C14.4643 21.3391 14.4359 21.0321 14.3148 20.7569C14.1937 20.4817 13.9866 20.2532 13.7245 20.1058C12.9847 19.6202 12.4055 18.9259 12.0605 18.1109C11.7155 17.2959 11.6201 16.3968 11.7864 15.5275C11.9481 14.887 12.2385 14.286 12.64 13.7613C13.0414 13.2366 13.5454 12.799 14.1213 12.4753C14.2952 12.3905 14.4351 12.2493 14.5183 12.0746C14.6015 11.9 14.6229 11.7023 14.5792 11.5139C14.4776 10.9141 14.452 10.304 14.5028 9.69783C14.5437 9.06907 14.7227 8.45703 15.027 7.90529C15.3313 7.35355 15.7534 6.87567 16.2634 6.50559C16.7733 6.13551 17.3586 5.88233 17.9775 5.76411C18.5964 5.64588 19.2337 5.66548 19.8442 5.82153C20.1612 5.90667 20.4972 5.88735 20.8024 5.76639C21.1076 5.64542 21.3656 5.42927 21.5382 5.15004C21.9489 4.50308 22.5228 3.97572 23.2021 3.62092C23.8814 3.26612 24.6421 3.09644 25.4078 3.12892C26.1735 3.16141 26.9171 3.3949 27.5638 3.80595C28.2106 4.21701 28.7378 4.79113 29.0923 5.47056C29.199 5.69816 29.3847 5.8793 29.6148 5.98034C29.845 6.08139 30.104 6.09544 30.3437 6.01993C31.1035 5.8136 31.9045 5.81296 32.6647 6.01811C33.4248 6.22326 34.1168 6.62682 34.6696 7.18742C35.2224 7.74801 35.6163 8.44552 35.8108 9.20844C36.0053 9.97137 35.9935 10.7723 35.7766 11.5292C35.6939 11.7652 35.6942 12.0224 35.7775 12.2583C35.8607 12.4941 36.0219 12.6945 36.2345 12.8263C39.363 15.1918 39.2866 18.6102 35.9597 20.8078C35.8392 20.9208 35.7441 21.0582 35.681 21.2108C35.6178 21.3635 35.588 21.5279 35.5935 21.693C35.7786 22.8059 35.6681 23.9478 35.273 25.0046C34.8035 25.9427 34.018 26.6851 33.0549 27.1011C32.0918 27.517 31.0128 27.5798 30.008 27.2785C29.802 27.1959 29.5729 27.1924 29.3645 27.2684C29.1561 27.3445 28.9831 27.4948 28.8787 27.6905C28.3472 28.3357 27.7818 28.9521 27.1847 29.5371C27.0375 29.3883 26.8999 29.2302 26.7727 29.064C26.5953 28.8274 26.5087 28.535 26.5285 28.2399L28.0546 25.5692C28.3598 25.0504 28.7566 25.0046 29.306 25.2488C29.9083 25.5818 30.5738 25.7845 31.2594 25.8439C31.7475 25.8197 32.2227 25.6787 32.645 25.4326C33.0673 25.1866 33.4243 24.8427 33.6861 24.4299C33.9478 24.0172 34.1065 23.5475 34.149 23.0606C34.1915 22.5737 34.1164 22.0838 33.9301 21.6319C33.8337 21.3908 33.7215 21.1563 33.5943 20.9299C33.2891 20.2737 33.5943 19.8922 34.1895 19.709H34.4337C35.1016 19.5585 35.6996 19.1876 36.1314 18.6562C36.5632 18.1248 36.8037 17.4636 36.8144 16.7789C36.7932 16.0899 36.5565 15.4249 36.1377 14.8774C35.7189 14.3299 35.1389 13.9275 34.4794 13.7267C33.4875 13.4215 33.3349 13.0247 33.869 12.0938C34.195 11.5629 34.3507 10.945 34.3153 10.323C34.2798 9.70098 34.0548 9.10472 33.6706 8.61431C33.2422 8.1033 32.663 7.74097 32.0161 7.57923C31.3691 7.4175 30.6876 7.46465 30.069 7.71392C29.8706 7.79023 29.7028 7.89703 29.5196 7.97333C28.6955 8.3396 28.3598 8.17174 28.1461 7.31712C28.0886 6.93715 27.9562 6.57241 27.7565 6.24408C27.5567 5.91576 27.2937 5.63039 26.9828 5.40461C26.6718 5.17883 26.319 5.01711 25.945 4.92887C25.5709 4.84063 25.1831 4.82765 24.804 4.89063C24.2209 4.95583 23.6689 5.18773 23.2142 5.55853C22.7595 5.92934 22.4213 6.42332 22.2402 6.98138C21.8434 8.09543 21.5992 8.20228 20.5614 7.62236C20.0084 7.27238 19.355 7.11549 18.7034 7.17624C18.0518 7.23698 17.4387 7.51194 16.9599 7.9581C16.4863 8.40999 16.1655 8.99843 16.0424 9.64134C15.9193 10.2842 16 10.9495 16.2731 11.5444C16.3494 11.697 16.4257 11.8649 16.4868 12.0175C16.8225 12.8111 16.6699 13.1316 15.8763 13.3757C14.1366 13.8946 13.3888 14.7797 13.3583 16.3058C13.3664 17.0141 13.6112 17.6992 14.0536 18.2523C14.4961 18.8054 15.1108 19.1946 15.8 19.358C16.6546 19.6632 16.8072 19.9837 16.3647 20.7773C16.114 21.1492 15.9438 21.5694 15.865 22.0109C15.7861 22.4524 15.8004 22.9055 15.9069 23.3411C16.0266 23.7907 16.2475 24.2068 16.5527 24.5579C16.8579 24.909 17.2394 25.1856 17.6679 25.3667C18.0964 25.5478 18.5605 25.6286 19.025 25.6029C19.4895 25.5772 19.942 25.4456 20.3478 25.2183C21.4924 24.6536 21.6907 24.7299 22.0265 25.9355C22.3087 26.7911 22.8952 27.5134 23.6747 27.9652C24.1926 28.3071 24.6215 28.7675 24.9261 29.3082C25.521 30.3849 25.8569 31.5854 25.9072 32.8145C25.9576 34.0436 25.7209 35.2676 25.2161 36.3893C24.7277 37.5491 24.1783 38.6937 23.69 39.8688C23.2408 40.9041 23.0232 42.025 23.0521 43.1532C23.0811 44.2813 23.3561 45.3896 23.8578 46.4005C23.9494 46.6142 24.041 46.8278 24.1173 47.0414C24.1285 47.1224 24.1285 47.2046 24.1173 47.2856L22.7285 48.125C22.2568 46.9625 21.8642 45.7694 21.5534 44.5539C21.416 43.7603 21.0193 43.623 20.3936 43.4856C17.0707 42.9065 14.0332 41.2429 11.7559 38.7547C9.80991 36.4666 8.83025 33.5113 9.02414 30.5138C9.0115 30.3906 9.02442 30.2662 9.06205 30.1482C9.09969 30.0303 9.16121 29.9213 9.24285 29.8282C9.32449 29.7351 9.42445 29.6599 9.53649 29.6071C9.64853 29.5544 9.77026 29.5254 9.89403 29.5218C12.1964 29.3821 14.4929 29.8775 16.5328 30.954C18.5728 32.0305 20.2778 33.6467 21.4618 35.6263C21.4954 35.7101 21.521 35.797 21.5382 35.8857L20.2257 36.6793C19.3168 34.9775 17.9476 33.5655 16.2745 32.6048C14.6014 31.6442 12.6918 31.1734 10.7639 31.2463C10.1535 36.3587 15.8916 42.0816 21.1871 41.9138Z" fill="#D22429"/>
<path id="Vector_2" d="M38.8747 30.9564C35.4157 30.5609 31.9356 31.4936 29.1382 33.5661L28.1615 32.3299C29.739 31.0765 31.573 30.1856 33.5333 29.7203C35.4865 29.1917 37.5252 29.0569 39.5309 29.3235C40.5534 29.4761 40.7823 29.7661 40.5992 30.758C40.1117 33.142 38.9374 35.3312 37.2208 37.0559C35.5043 38.7806 33.3207 39.9653 30.939 40.464C29.414 40.585 27.8809 40.5595 26.3607 40.3877C25.8571 40.3877 25.6434 40.0977 25.8113 39.5789C25.9792 39.06 25.9792 38.6175 26.7422 38.7854C28.097 39.1449 29.5154 39.1944 30.892 38.9302C32.2685 38.666 33.5678 38.0949 34.6932 37.2593C36.5733 35.8869 37.9682 33.9521 38.6763 31.7347C38.759 31.4798 38.8252 31.2198 38.8747 30.9564Z" fill="#D22429"/>
<path id="Vector_3" d="M20.0884 16.4431C20.1195 15.1227 20.659 13.8653 21.5944 12.9328C22.5297 12.0003 23.7888 11.4646 25.1093 11.4375C26.399 11.5085 27.6125 12.0708 28.5004 13.0089C29.3883 13.947 29.8831 15.1896 29.8831 16.4812C29.8831 17.7729 29.3883 19.0155 28.5004 19.9536C27.6125 20.8917 26.399 21.454 25.1093 21.525C23.7758 21.4972 22.5056 20.951 21.5682 20.0022C20.6308 19.0535 20.1 17.7768 20.0884 16.4431ZM21.7824 16.4431C21.7277 16.8881 21.7717 17.3396 21.9113 17.7657C22.0509 18.1917 22.2826 18.5818 22.59 18.9081C22.8974 19.2344 23.273 19.489 23.6899 19.6538C24.1068 19.8186 24.555 19.8895 25.0024 19.8615C25.4515 19.9172 25.9073 19.8723 26.3369 19.7302C26.7665 19.588 27.1591 19.352 27.4863 19.0394C27.8135 18.7269 28.0671 18.3455 28.2287 17.9228C28.3903 17.5002 28.456 17.0468 28.4209 16.5957C28.4647 16.1427 28.4112 15.6857 28.2638 15.2552C28.1164 14.8246 27.8787 14.4306 27.5664 14.0996C27.2542 13.7686 26.8748 13.5082 26.4536 13.3359C26.0324 13.1637 25.5792 13.0836 25.1245 13.1009C24.6814 13.0746 24.2376 13.142 23.8223 13.2987C23.4069 13.4554 23.0293 13.6979 22.7139 14.0104C22.3986 14.3229 22.1526 14.6983 21.9921 15.1122C21.8316 15.5261 21.7601 15.9692 21.7824 16.4125V16.4431Z" fill="#D22429"/>
</g>
</g>
</svg>
