<svg width="50" height="50" viewBox="0 0 50 50" fill="none" xmlns="http://www.w3.org/2000/svg">
<g id="Group 45">
<g id="globe">
<path id="Vector" d="M24.799 30.1385V26.0772H16.6472C17.0137 28.2178 17.3803 30.2265 17.6735 32.2351C17.6468 32.7003 17.5376 33.157 17.351 33.5839H16.5886L15.3277 26.0919H10.0935C10.1737 29.1057 11.1541 32.0265 12.9085 34.4783C12.701 34.6426 12.4569 34.7544 12.197 34.804C11.937 34.8537 11.6689 34.8398 11.4154 34.7635C11.162 34.6871 10.9308 34.5507 10.7415 34.3657C10.5521 34.1808 10.4103 33.9528 10.3281 33.7012C9.20668 31.6892 8.49875 29.4732 8.24585 27.1837C7.99296 24.8942 8.20021 22.5772 8.85544 20.3689C9.51067 18.1606 10.6006 16.1055 12.0613 14.3244C13.522 12.5433 15.324 11.0721 17.3613 9.99725C19.3987 8.9224 21.6302 8.2656 23.925 8.06541C26.2197 7.86522 28.5314 8.12568 30.724 8.8315C32.9167 9.53733 34.9461 10.6743 36.6932 12.1755C38.4402 13.6768 39.8696 15.5121 40.8973 17.5736C41.4691 18.7025 41.4252 19.4942 40.3109 20.0367L36.4402 14.1721C35.7393 14.7423 35.0734 15.3543 34.4463 16.0048C34.3354 16.1684 34.2588 16.3528 34.221 16.5468C34.1832 16.7408 34.185 16.9404 34.2264 17.1337C34.5489 18.8638 34.9888 20.5792 35.282 22.3239C35.3623 22.7853 35.3394 23.2587 35.2147 23.7101C35.0901 24.1616 34.8669 24.5798 34.5612 24.9345C34.2555 25.2893 33.8749 25.5719 33.4468 25.7619C33.0188 25.9518 32.554 26.0445 32.0858 26.0333C30.6196 26.0333 29.0362 26.1212 27.526 26.0333C26.3678 26.0333 26.0599 26.4145 26.1479 27.4994C26.2362 27.9841 26.2362 28.4808 26.1479 28.9656C25.9503 29.5049 25.6947 30.0211 25.3855 30.5051L24.799 30.1385ZM24.799 19.0544L17.9374 17.2071L16.6619 24.6111H24.799V19.0544ZM33.1267 17.1924L26.2945 19.0397V24.6405H34.3436L33.1267 17.1924ZM15.2397 24.6405C15.8115 21.9134 16.3833 19.3476 16.8818 16.7672C16.8901 16.6073 16.8643 16.4475 16.8062 16.2984C16.7481 16.1493 16.6589 16.0142 16.5446 15.9022C16.0021 15.345 15.401 14.8612 14.7412 14.2748C11.9064 16.9994 10.2312 20.7121 10.0642 24.6405H15.2397ZM24.799 10.0669C22.4532 9.90564 19.6381 12.6327 18.7731 16.0488L24.799 17.6762V10.0669ZM26.2652 10.0669V17.6762L32.247 16.0048C31.3674 12.6473 28.5817 9.8763 26.2505 10.0962L26.2652 10.0669ZM33.5226 14.9199L35.3406 13.2338L31.514 11.0199L31.2794 11.3131L33.5226 14.9199ZM19.8581 11.1079L19.6235 10.8733L15.6649 13.2631L17.4829 14.8905L19.8581 11.1079Z" fill="#D22429"/>
<path id="Vector_2" d="M18.7584 36.9704C19.2171 37.1398 19.655 37.3612 20.0633 37.6302C21.0896 38.5245 22.0133 39.5362 23.0689 40.4012C23.5282 40.627 24.0253 40.7662 24.5351 40.8117C25.5467 38.7151 23.802 36.164 25.5907 34.39H26.1332V40.4892C28.4057 40.7971 31.3087 38.0407 32.2177 34.7418L28.4497 33.2757C29.3147 32.308 29.3147 32.308 32.7162 33.3783C33.8158 32.2054 32.9214 29.9182 35.2086 29.2291C35.0419 30.4578 34.7872 31.673 34.4462 32.8652C34.3231 33.0818 34.2447 33.3211 34.2157 33.5686C34.1867 33.8161 34.2077 34.067 34.2774 34.3062C34.3472 34.5455 34.4642 34.7683 34.6216 34.9615C34.7791 35.1547 34.9737 35.3143 35.194 35.4309C35.5856 35.7345 35.9488 36.0731 36.2789 36.4426C39.0224 33.8643 40.675 30.3337 40.8973 26.5754C40.8973 26.3115 40.4135 26.0182 40.0909 25.6664L42.5248 23.6138C43.639 28.7893 40.6774 36.7212 33.9478 40.4305C27.614 43.9053 18.8024 43.0403 14.5066 38.4512C16.6765 36.9851 17.952 39.3749 19.946 39.6535L18.5679 37.4982L18.7584 36.9704ZM33.6252 35.5042L31.1621 39.4482L31.3967 39.6974L35.2673 37.3809L33.6252 35.5042Z" fill="#D22429"/>
<path id="Vector_3" d="M8.58334 37.601C7.36888 37.461 6.16432 37.2456 4.97662 36.9559C4.45553 36.844 3.96414 36.6227 3.53486 36.3069C3.10557 35.991 2.74814 35.5876 2.48625 35.1234C2.22436 34.6592 2.06393 34.1448 2.01555 33.614C1.96717 33.0832 2.03197 32.5482 2.20562 32.0443C2.33709 31.322 2.33709 30.582 2.20562 29.8597C2.07367 28.9214 2.20561 28.159 3.20259 27.8218C3.39474 27.7278 3.60511 27.6769 3.81898 27.6729C4.03285 27.6688 4.24505 27.7115 4.44064 27.7982C4.63623 27.8848 4.81049 28.0132 4.95121 28.1743C5.09193 28.3354 5.19568 28.5253 5.2552 28.7308C5.35043 28.9182 5.40427 29.1238 5.41305 29.3338C5.42183 29.5438 5.38533 29.7533 5.30607 29.9479C5.22681 30.1426 5.10664 30.318 4.95367 30.4621C4.8007 30.6063 4.61851 30.7158 4.41948 30.7834C2.95333 31.1792 3.08528 32.2496 2.95333 33.3198C2.88889 33.8672 3.00989 34.4204 3.29696 34.8908C3.58402 35.3613 4.02058 35.7219 4.5368 35.9149C5.43578 36.2984 6.39179 36.5312 7.36646 36.604C11.6004 36.6966 15.8066 35.8974 19.7115 34.2582C27.919 31.4498 35.4215 26.8983 41.7037 20.9162C43.2668 19.3584 44.5864 17.5741 45.6183 15.6234C47.0845 12.9843 45.8969 11.0197 42.9646 10.4772C42.3757 10.425 41.7876 10.5863 41.3078 10.9317C41.1461 11.084 40.9547 11.2012 40.7455 11.276C40.5363 11.3509 40.314 11.3817 40.0924 11.3665C39.8708 11.3514 39.6546 11.2906 39.4576 11.188C39.2606 11.0855 39.0869 10.9433 38.9474 10.7704C38.7967 10.6236 38.6794 10.446 38.6035 10.2498C38.5275 10.0536 38.4947 9.84335 38.5072 9.63333C38.5197 9.42331 38.5773 9.21845 38.676 9.03265C38.7747 8.84685 38.9123 8.6845 39.0793 8.55658C39.8857 7.80884 40.6481 8.01409 41.4398 8.67385C41.9166 9.11099 42.4815 9.44095 43.0965 9.64152C46.7619 10.5505 47.8908 12.7937 46.2927 16.2245C44.8812 18.9909 42.8792 21.4134 40.4281 23.3207C32.6301 29.9891 23.3258 34.6589 13.319 36.9266C12.4585 37.1241 11.5871 37.271 10.7093 37.3664C10.0348 37.3664 9.33109 37.3664 8.642 37.3664L8.58334 37.601Z" fill="#D22429"/>
</g>
</g>
</svg>
