<svg width="50" height="50" viewBox="0 0 50 50" fill="none" xmlns="http://www.w3.org/2000/svg">
<g id="Group 44">
<g id="hand">
<path id="Vector" d="M12.3109 44.3183C12.1985 45.302 12.1001 46.2155 11.9877 47.129C11.9174 47.7052 11.6644 47.9863 11.1023 48.0003C9.72503 48.0003 8.34781 48.0003 6.97054 48.0003C6.66797 47.9585 6.38183 47.8373 6.14134 47.649C5.76189 47.396 5.52301 46.9885 4.98897 46.9604C4.86249 46.9604 4.65168 46.6371 4.67979 46.4966C4.75088 46.2883 4.89585 46.1133 5.08731 46.0047C5.17164 46.0047 5.35433 46.0047 5.48082 46.0047L9.85153 46.1031C10.2029 46.1031 10.3856 46.1031 10.4699 45.6675C11.1033 43.0377 11.2839 40.3192 11.0039 37.6287C10.9056 36.7293 10.751 35.8439 10.5964 34.9445C10.5863 34.7938 10.5452 34.6467 10.4756 34.5126C10.4061 34.3785 10.3095 34.2603 10.1921 34.1653C10.0746 34.0703 9.93878 34.0005 9.79312 33.9605C9.64745 33.9204 9.49509 33.9109 9.34558 33.9326C8.05264 34.0731 6.7597 34.298 5.48082 34.4807C5.22785 34.4807 5.14354 34.6634 5.14354 34.9304C5.14354 38.0784 5.21383 41.2124 5.25599 44.3605C5.25599 44.6134 5.25599 44.8523 5.25599 45.0912C5.25599 45.3301 5.17166 45.6815 4.80627 45.7236C4.73029 45.7396 4.65159 45.7374 4.57664 45.7171C4.50169 45.6969 4.43264 45.6592 4.37507 45.6071C4.31749 45.555 4.27306 45.49 4.24541 45.4174C4.21777 45.3449 4.20768 45.2668 4.21599 45.1896C4.21599 44.4588 4.11765 43.7842 4.11765 42.9832C4.11765 40.8329 4.11765 38.6827 4.11765 36.5465C4.11765 36.0406 4.11761 35.5347 4.03329 35.0288C3.99244 34.8543 3.98916 34.6732 4.02359 34.4973C4.05803 34.3215 4.12942 34.155 4.23306 34.0088C4.3367 33.8627 4.47022 33.7402 4.62476 33.6495C4.7793 33.5588 4.95133 33.502 5.12947 33.4829C6.0008 33.2861 6.87217 33.1597 7.75755 33.0191C8.22132 32.9348 8.69914 32.9207 9.16292 32.8786C9.70937 32.8156 10.2594 32.9618 10.7025 33.2876C11.1457 33.6135 11.4492 34.0949 11.552 34.6353C11.552 34.9304 11.6785 35.2255 11.7488 35.5909C12.2547 35.4223 12.7466 35.3099 13.1542 35.1131C14.8627 34.4013 16.6374 33.8599 18.4524 33.4969C20.3761 33.0785 22.1937 32.2701 23.7928 31.1218C24.6489 30.4211 25.6318 29.8915 26.6879 29.5619C27.0499 29.4576 27.4306 29.4349 27.8025 29.4957C28.1743 29.5564 28.5281 29.6991 28.8381 29.9132C29.2061 30.1718 29.4767 30.5464 29.6066 30.977C29.7366 31.4076 29.7183 31.8693 29.5548 32.2883C29.4204 32.6614 29.2152 33.0049 28.9505 33.3001C27.2078 35.0006 25.437 36.6871 23.6663 38.3595C23.3852 38.6265 23.0339 38.8233 22.7388 39.1465C23.4696 39.1465 24.2144 39.1465 24.9592 39.1465C27.9467 38.7521 30.8854 38.0504 33.7287 37.0525C34.7077 36.6735 35.6488 36.203 36.5395 35.6472C37.3124 35.2256 38.0432 34.7618 38.8302 34.3823C39.2136 34.1981 39.6285 34.0885 40.0529 34.0591C40.2631 34.0403 40.4748 34.0691 40.6723 34.1433C40.8699 34.2176 41.0482 34.3353 41.194 34.4879C41.3398 34.6405 41.4493 34.8238 41.5146 35.0245C41.5798 35.2252 41.599 35.4381 41.5707 35.6472C41.5511 36.1646 41.5042 36.6806 41.4302 37.193C41.2587 38.0874 40.823 38.9098 40.1794 39.5541C37.0663 43.0755 32.928 45.5329 28.3462 46.5809C23.1064 47.7418 17.6273 47.0774 12.8168 44.6977L12.3109 44.3183ZM25.8306 31.0516C25.7717 31.074 25.7152 31.1022 25.6619 31.1359C25.3387 31.3467 25.0155 31.5435 24.7063 31.7683C23.0399 33.027 21.123 33.9135 19.0848 34.3682C16.651 34.9447 14.2607 35.6914 11.9315 36.6028V36.8558C11.9315 38.5703 12.0158 40.2848 12.0298 41.9994C12.0298 42.2945 12.1704 42.3648 12.3952 42.4211L15.206 43.1377C17.6206 43.7779 20.0915 44.1828 22.5842 44.3464C26.2316 44.5432 29.8617 43.7209 33.0682 41.9713C35.6473 40.592 37.9639 38.7701 39.9123 36.5887C40.1629 36.2988 40.3582 35.9654 40.4885 35.605C40.6431 35.2115 40.3902 34.9304 39.9686 35.0147C39.638 35.0656 39.3191 35.175 39.027 35.3379C38.1978 35.7877 37.3967 36.2655 36.5957 36.7433C35.6023 37.3568 34.5287 37.8297 33.4055 38.1487L28.7537 39.3854C26.7655 39.9855 24.6819 40.2049 22.6123 40.0319C21.7643 39.998 20.9464 39.709 20.2653 39.2027C20.1967 39.1653 20.1374 39.1129 20.0918 39.0494C20.0463 38.9859 20.0156 38.913 20.0021 38.836C19.9886 38.759 19.9926 38.68 20.0138 38.6048C20.0351 38.5296 20.073 38.4602 20.1248 38.4016C20.1703 38.3378 20.2303 38.2858 20.3 38.2499C20.3697 38.214 20.4469 38.1953 20.5253 38.1953C20.6037 38.1953 20.6809 38.214 20.7506 38.2499C20.8203 38.2858 20.8803 38.3378 20.9258 38.4016C21.1366 38.6124 21.3053 38.5703 21.5161 38.4016C22.171 38.0066 22.8 37.57 23.3993 37.0947C24.7344 35.9001 26.0133 34.6494 27.3905 33.3705C25.9571 33.3002 25.423 32.4851 25.8306 30.9954V31.0516ZM27.2359 32.457L28.4305 31.6559C28.6554 31.5013 28.8381 31.3327 28.6132 31.0375C28.3883 30.7424 28.037 30.3911 27.7559 30.6159C27.3588 30.9775 27.0345 31.4115 26.8003 31.8948C26.6597 32.0213 26.8003 32.2743 27.2078 32.3586L27.2359 32.457Z" fill="#D22429"/>
<path id="Vector_2" d="M12.9434 19.6678C12.847 19.9792 12.7811 20.2993 12.7466 20.6234C12.7466 21.1153 12.4093 21.2418 12.0299 21.3823C11.8711 21.4402 11.698 21.4456 11.536 21.3975C11.374 21.3494 11.2318 21.2504 11.1305 21.1153C9.80941 19.7099 8.47429 18.3045 7.15324 16.8992C6.77379 16.4916 6.77379 16.2106 7.15324 15.9014C8.90995 14.6366 10.6667 13.3858 12.4515 12.1631C12.5438 12.1114 12.6478 12.0843 12.7537 12.0843C12.8595 12.0843 12.9635 12.1114 13.0558 12.1631C13.31 12.3647 13.4964 12.6394 13.5898 12.9501C13.6099 13.3137 13.5768 13.6783 13.4915 14.0323C16.8459 14.3461 20.0402 15.614 22.6966 17.6862L22.3312 11.0247L20.8556 10.9545C20.2934 10.9545 20.2091 10.4205 20.0124 10.0832C19.9985 9.96114 20.0114 9.83754 20.0502 9.72102C20.0891 9.6045 20.1529 9.49782 20.2372 9.40854C22.008 7.3567 23.8022 5.31895 25.6198 3.29522C25.9711 2.88766 26.2663 2.91577 26.5895 3.29522L31.0305 9.11347C31.153 9.28101 31.2308 9.47692 31.2566 9.68285C31.2824 9.88878 31.2554 10.0979 31.1781 10.2905C31.1007 10.4831 30.9757 10.6529 30.8146 10.7838C30.6536 10.9147 30.4618 11.0025 30.2575 11.0388C29.7797 11.0388 29.2878 11.1371 28.8521 11.1652C28.6273 11.1652 28.5289 11.2496 28.5289 11.4885C28.5289 13.6247 28.5289 15.7046 28.5992 17.897C28.5874 17.9573 28.5874 18.0194 28.5992 18.0797C31.304 15.6338 34.7231 14.1213 38.3524 13.7652C38.3685 13.6628 38.3685 13.5584 38.3524 13.456C38.1276 12.8236 38.4789 12.416 38.8583 12.0506C38.8976 11.9898 38.9492 11.9378 39.0097 11.898C39.0702 11.8583 39.1384 11.8315 39.2099 11.8196C39.2813 11.8077 39.3544 11.8109 39.4246 11.8289C39.4948 11.8469 39.5604 11.8794 39.6172 11.9242L44.9858 15.7327C45.3512 15.9857 45.3652 16.2949 44.9858 16.6322L40.7697 20.9326C40.7108 20.9921 40.6408 21.0393 40.5636 21.0715C40.4864 21.1038 40.4036 21.1203 40.3199 21.1203C40.2363 21.1203 40.1535 21.1038 40.0763 21.0715C39.9991 21.0393 39.929 20.9921 39.8702 20.9326C39.6289 20.8176 39.4254 20.6363 39.2835 20.4098C39.1416 20.1832 39.0673 19.921 39.0692 19.6537C39.0761 19.6045 39.0705 19.5543 39.0529 19.5078C39.0353 19.4613 39.0062 19.42 38.9683 19.3877C38.9305 19.3555 38.8851 19.3333 38.8364 19.3233C38.7877 19.3133 38.7372 19.3157 38.6897 19.3304C37.8162 19.4534 36.9522 19.6366 36.1038 19.8785C34.5544 20.4727 33.1743 21.4378 32.0845 22.6893C30.7679 24.1051 29.6648 25.7053 28.81 27.4394C28.6864 27.7603 28.4621 28.0325 28.1707 28.2149C27.8792 28.3974 27.5364 28.4804 27.1938 28.4513C26.1257 28.4513 25.0436 28.4513 23.9755 28.5778C23.7373 28.6114 23.4948 28.5648 23.2861 28.4452C23.0774 28.3256 22.9145 28.1398 22.8231 27.9173C21.594 25.3807 19.8577 23.123 17.7216 21.2839C16.3363 20.2604 14.6657 19.6954 12.9434 19.6678ZM21.6988 9.33829H21.8253H23.062C23.6242 9.33829 23.8069 9.50696 23.835 10.0691C23.835 11.0529 23.9193 12.0366 23.9333 13.0203L24.1442 26.9617C24.1442 27.1303 24.1442 27.2849 24.1442 27.4957L27.5311 27.341C27.5311 27.06 27.5311 26.8492 27.5311 26.6384C27.5311 21.1293 27.4936 15.6203 27.4187 10.1112C27.4187 9.46475 27.5311 9.3524 28.1494 9.31024L29.7375 9.22592L26.0555 4.4617L21.6988 9.33829ZM28.6273 25.0644C29.7858 23.383 31.1503 21.8534 32.6888 20.511C34.7013 18.9142 37.1523 17.9682 39.7156 17.7986C40.3621 17.7986 40.4886 17.7986 40.587 18.5013C40.587 18.8667 40.7134 19.2321 40.7978 19.7099L44.0863 16.2808L39.8702 13.3717C39.8702 13.6668 39.8702 13.8214 39.8702 13.9901C39.8702 14.6084 39.7297 14.7631 39.1254 14.8333C38.2962 14.9317 37.4811 15.0301 36.666 15.1987C33.8226 15.761 31.2021 17.1323 29.1192 19.1478C28.9237 19.3045 28.7701 19.5071 28.672 19.7376C28.5739 19.9681 28.5344 20.2194 28.557 20.4689C28.557 21.0451 28.557 21.6353 28.557 22.2115L28.6273 25.0644ZM11.4537 19.9769C11.538 19.4288 11.6223 19.0213 11.6785 18.5716C11.679 18.4866 11.6982 18.4028 11.7348 18.3262C11.7714 18.2495 11.8245 18.1819 11.8904 18.1282C11.9562 18.0745 12.033 18.036 12.1155 18.0155C12.1979 17.9949 12.2839 17.9929 12.3672 18.0095C12.5499 18.0095 12.7326 18.0095 12.9153 18.0095C14.7915 18.183 16.6007 18.7948 18.1972 19.7956C19.7936 20.7964 21.1326 22.1583 22.1064 23.7714C22.4015 24.2633 22.6966 24.7552 23.062 25.3314C23.062 25.1346 23.062 25.0503 23.062 24.966C22.9917 23.1109 22.9215 21.2558 22.8231 19.3445C22.7988 19.1712 22.7142 19.012 22.5842 18.8948C20.9048 17.3332 18.8611 16.2171 16.6395 15.6484C15.4341 15.36 14.2145 15.1349 12.9856 14.9738C12.3953 14.8755 12.2407 14.763 12.2407 14.1728V13.5263L8.13701 16.4073L11.4537 19.9769Z" fill="#D22429"/>
<path id="Vector_3" d="M9.97805 35.8859C9.98191 36.0346 9.95547 36.1826 9.90033 36.3207C9.8452 36.4589 9.76255 36.5843 9.65737 36.6895C9.55219 36.7947 9.42668 36.8774 9.28853 36.9325C9.15038 36.9876 9.00247 37.0141 8.85377 37.0102C8.69663 37.0198 8.53916 36.9972 8.39113 36.9436C8.2431 36.89 8.10765 36.8066 7.99308 36.6986C7.87852 36.5906 7.78729 36.4603 7.72503 36.3157C7.66277 36.1711 7.63081 36.0152 7.63111 35.8578C7.63108 35.5732 7.74312 35.3001 7.94303 35.0976C8.14294 34.895 8.4146 34.7794 8.69916 34.7757C9.50022 34.7617 9.97805 35.1833 9.97805 35.8859Z" fill="#D22429"/>
</g>
</g>
</svg>
