<svg width="50" height="50" viewBox="0 0 50 50" fill="none" xmlns="http://www.w3.org/2000/svg">
<g id="Group 46">
<g id="mountain">
<path id="Vector" d="M13.071 36.4106C12.2728 37.3086 11.5743 38.1353 10.8189 38.905C8.60957 41.1428 6.35748 43.3664 4.13391 45.5899C3.60653 46.1031 3.05067 46.6447 2.33798 45.932C1.6253 45.2193 2.18116 44.6634 2.70855 44.136C9.40777 37.4653 16.0927 30.7661 22.8062 24.1097C23.0779 23.8654 23.2908 23.5629 23.429 23.2247C23.5672 22.8866 23.6272 22.5215 23.6044 22.1569C23.6044 16.3557 23.6044 10.5402 23.6044 4.73895C23.6044 3.19955 23.7897 3.01425 25.3149 3C29.8333 3 34.3659 3 38.8843 3C39.4515 3.12101 39.9954 3.33279 40.495 3.62716C40.343 4.18877 40.1126 4.72617 39.8108 5.22357C38.7418 6.5349 37.573 7.77496 36.3615 9.12905C37.5588 10.5544 38.7561 11.823 39.8678 13.2199C40.2356 13.6668 40.4145 14.2395 40.3667 14.8163C40.3667 15.1014 39.4402 15.3722 38.9414 15.3722C34.5512 15.3722 30.1611 15.3722 25.6142 15.3722C25.6142 17.9663 25.6142 20.475 25.6142 22.9836C25.6142 23.3542 26.0703 23.7391 26.3839 24.0526L46.1109 43.7512C46.396 44.0363 46.8094 44.3071 46.9234 44.6634C46.9907 44.8602 47.014 45.0695 46.9919 45.2763C46.9697 45.4831 46.9025 45.6826 46.7951 45.8608C46.6159 45.9659 46.4159 46.0305 46.2091 46.0502C46.0023 46.0699 45.7936 46.0442 45.5978 45.9748C45.2842 45.875 45.0277 45.5044 44.7711 45.2479L37.0028 37.5224C36.7178 37.2373 36.4185 36.9665 36.0051 36.5959C34.6653 38.5344 33.3682 40.3873 32.0854 42.2973C31.0876 43.7227 30.7883 43.7227 29.4627 42.6251L24.1746 38.0782C22.6637 39.1187 21.11 40.1165 19.6419 41.2426C19.4745 41.4273 19.2651 41.5691 19.0314 41.6558C18.7976 41.7426 18.5464 41.7718 18.299 41.7411C18.0516 41.7103 17.8152 41.6205 17.6098 41.4791C17.4044 41.3378 17.2361 41.1491 17.119 40.929C15.8932 39.4466 14.5819 38.064 13.071 36.4106ZM34.3089 35.4983L24.4312 25.5208L14.7957 35.256L18.5729 39.5321C20.0838 38.4774 21.5661 37.4939 22.9772 36.4391C23.1407 36.2689 23.3384 36.1353 23.5572 36.0471C23.7761 35.9589 24.0111 35.9183 24.2469 35.9277C24.4827 35.9372 24.7137 35.9965 24.9249 36.1018C25.136 36.2072 25.3223 36.3562 25.4716 36.5389C27.0823 38.0498 28.8213 39.3896 30.5602 40.9432L34.3089 35.4983ZM25.6712 5.05253V13.2911H37.2452C36.2759 12.1651 35.4777 11.1674 34.594 10.2409C34.4058 10.1095 34.2521 9.93465 34.146 9.73116C34.0399 9.52767 33.9845 9.30157 33.9845 9.07207C33.9845 8.84257 34.0399 8.61647 34.146 8.41298C34.2521 8.20949 34.4058 8.03462 34.594 7.90326C35.4492 7.0623 36.2046 6.12155 37.1739 5.05253H25.6712Z" fill="#D22429"/>
</g>
</g>
</svg>
