<svg width="50" height="51" viewBox="0 0 50 51" fill="none" xmlns="http://www.w3.org/2000/svg">
<g id="Group 40">
<g id="people">
<path id="Vector" d="M49.9975 32.4418C50.0084 32.2745 49.9835 32.1069 49.9244 31.95C49.8654 31.7931 49.7735 31.6506 49.655 31.532C49.5364 31.4135 49.3939 31.3216 49.237 31.2626C49.0801 31.2035 48.9125 31.1786 48.7452 31.1895C48.1402 31.1895 47.5353 31.1895 46.941 31.1895H46.7711V29.6825C46.775 28.8848 46.5777 28.099 46.1974 27.3978C45.8171 26.6966 45.2662 26.1026 44.5955 25.6708C44.4045 25.5434 44.1922 25.4373 43.9905 25.3206C44.6767 24.2923 44.9758 23.0538 44.8345 21.8257C44.6932 20.5976 44.1208 19.4593 43.2191 18.6137C42.3174 17.768 41.1449 17.2697 39.9102 17.2074C38.6756 17.1452 37.4589 17.5229 36.4766 18.2736C35.4353 19.091 34.7371 20.2681 34.5192 21.5739C34.3012 22.8797 34.5792 24.2199 35.2986 25.3312H35.2137C34.398 25.7289 33.7134 26.3522 33.2412 27.1272C32.769 27.9022 32.5291 28.7964 32.5498 29.7037C32.5498 30.1282 32.5498 30.5527 32.5498 30.9772V31.1364H32.1253V29.6506C32.1297 28.8927 31.9528 28.1447 31.6094 27.469C31.266 26.7933 30.7661 26.2095 30.1513 25.7663C29.8966 25.5753 29.6207 25.4373 29.3553 25.2675C30.0544 24.1798 30.3322 22.8744 30.1368 21.5964C29.9414 20.3184 29.2861 19.1557 28.2941 18.3266C27.3926 17.583 26.2653 17.1675 25.0969 17.1482C23.9285 17.1289 22.7881 17.507 21.8626 18.2205C20.9225 18.9238 20.258 19.9337 19.9841 21.0754C19.7949 21.7912 19.7576 22.5387 19.8746 23.2698C19.9916 24.0009 20.2602 24.6995 20.6634 25.3206L20.5678 25.3736C19.7698 25.7585 19.0971 26.3614 18.6276 27.1127C18.158 27.864 17.9108 28.7329 17.9146 29.6188C17.9146 30.0433 17.9146 30.4678 17.9146 30.8924V31.1046H17.5114V29.6188C17.518 28.8837 17.3525 28.1572 17.0281 27.4975C16.7038 26.8378 16.2296 26.2631 15.6435 25.8194C15.3675 25.5965 15.0491 25.4267 14.7413 25.225C15.2098 24.4985 15.4907 23.6671 15.5585 22.8053C15.6406 21.9383 15.498 21.0648 15.1446 20.2688C14.7156 19.2649 13.9803 18.4223 13.0438 17.8612C12.1073 17.3002 11.0175 17.0495 9.92995 17.1448C8.84242 17.2401 7.81276 17.6767 6.98815 18.3921C6.16353 19.1076 5.58611 20.0652 5.3383 21.1285C5.17195 21.8272 5.14922 22.5525 5.27145 23.2603C5.39368 23.9681 5.6583 24.6438 6.04935 25.2463L5.90081 25.3312C5.12198 25.7156 4.46418 26.3073 3.99983 27.0412C3.53548 27.7752 3.28252 28.623 3.26877 29.4914C3.26877 29.969 3.26877 30.4572 3.26877 30.9348V31.1152H1.14618C0.842191 31.1152 0.550656 31.236 0.335702 31.4509C0.120749 31.6659 0 31.9574 0 32.2614V32.3569L49.9975 32.4418ZM39.6393 18.4859C40.1563 18.4886 40.6678 18.5932 41.1444 18.7937C41.6211 18.9941 42.0535 19.2865 42.4172 19.6541C42.7808 20.0217 43.0686 20.4573 43.2639 20.9361C43.4592 21.4149 43.5582 21.9274 43.5554 22.4445C43.5831 22.9752 43.5024 23.506 43.3184 24.0045C43.1343 24.5031 42.8508 24.959 42.4849 25.3444C42.119 25.7299 41.6785 26.0367 41.1902 26.2465C40.7019 26.4562 40.176 26.5644 39.6446 26.5644C39.1131 26.5644 38.5873 26.4562 38.099 26.2465C37.6107 26.0367 37.1702 25.7299 36.8043 25.3444C36.4384 24.959 36.1548 24.5031 35.9707 24.0045C35.7867 23.506 35.7061 22.9752 35.7337 22.4445C35.7309 21.4029 36.1397 20.4023 36.8713 19.6608C37.6028 18.9194 38.5977 18.497 39.6393 18.4859ZM33.8552 29.3322C33.9083 28.6849 34.1453 28.0663 34.5383 27.5492C34.9313 27.0321 35.4639 26.6381 36.0733 26.4137C36.1009 26.393 36.1344 26.3819 36.1688 26.3819C36.2033 26.3819 36.2368 26.393 36.2644 26.4137C37.303 27.3085 38.654 27.755 40.0213 27.6554C41.1124 27.5797 42.1505 27.1556 42.9824 26.4455C43.0181 26.4071 43.0652 26.3811 43.1168 26.3716C43.1685 26.362 43.2218 26.3693 43.2689 26.3925C43.9237 26.6552 44.4849 27.108 44.8802 27.6924C45.2756 28.2769 45.4869 28.9663 45.487 29.6718V31.0197C45.487 31.0197 45.487 31.1046 45.487 31.1577H33.8128C33.834 30.5315 33.7915 29.9266 33.8552 29.3322ZM25.0041 18.4859C26.0465 18.4943 27.043 18.9157 27.7751 19.6578C28.5073 20.3999 28.9153 21.402 28.9096 22.4445C28.9373 22.9752 28.8566 23.506 28.6725 24.0045C28.4885 24.5031 28.2049 24.959 27.839 25.3444C27.4731 25.7299 27.0327 26.0367 26.5444 26.2465C26.0561 26.4562 25.5302 26.5644 24.9988 26.5644C24.4673 26.5644 23.9414 26.4562 23.4531 26.2465C22.9648 26.0367 22.5243 25.7299 22.1585 25.3444C21.7926 24.959 21.509 24.5031 21.3249 24.0045C21.1409 23.506 21.0602 22.9752 21.0879 22.4445C21.0851 21.9274 21.1842 21.4149 21.3795 20.9361C21.5748 20.4573 21.8624 20.0217 22.2261 19.6541C22.5897 19.2865 23.0222 18.9941 23.4989 18.7937C23.9755 18.5932 24.487 18.4886 25.0041 18.4859ZM19.1881 29.311C19.2477 28.6638 19.4912 28.047 19.8899 27.5337C20.2885 27.0203 20.8257 26.6317 21.4381 26.4137C21.4663 26.4004 21.4971 26.3936 21.5283 26.3936C21.5595 26.3936 21.5903 26.4004 21.6185 26.4137C22.5554 27.217 23.7487 27.6585 24.9828 27.6585C26.2169 27.6585 27.4103 27.217 28.3471 26.4137C28.3855 26.3852 28.432 26.3699 28.4798 26.3699C28.5275 26.3699 28.574 26.3852 28.6124 26.4137C29.2701 26.6735 29.8344 27.1253 30.2318 27.7102C30.6293 28.295 30.8417 28.9859 30.8412 29.6931V31.0409C30.846 31.0868 30.846 31.133 30.8412 31.1789H19.167C19.167 30.5315 19.1245 29.916 19.1881 29.311ZM10.3476 18.4859C10.8647 18.4886 11.3761 18.5932 11.8528 18.7937C12.3294 18.9941 12.7619 19.2865 13.1256 19.6541C13.4892 20.0217 13.7769 20.4573 13.9722 20.9361C14.1675 21.4149 14.2665 21.9274 14.2637 22.4445C14.2914 22.9752 14.2108 23.506 14.0267 24.0045C13.8427 24.5031 13.5591 24.959 13.1932 25.3444C12.8273 25.7299 12.3868 26.0367 11.8985 26.2465C11.4102 26.4562 10.8843 26.5644 10.3529 26.5644C9.82144 26.5644 9.29562 26.4562 8.80732 26.2465C8.31902 26.0367 7.87852 25.7299 7.51264 25.3444C7.14676 24.959 6.86315 24.5031 6.6791 24.0045C6.49505 23.506 6.41436 22.9752 6.44202 22.4445C6.43637 21.402 6.84437 20.3999 7.57651 19.6578C8.30865 18.9157 9.30521 18.4943 10.3476 18.4859ZM4.51052 29.6718C4.51724 28.9689 4.73403 28.284 5.13309 27.7053C5.53214 27.1266 6.0952 26.6805 6.74984 26.4243C6.78413 26.3958 6.82729 26.3802 6.87187 26.3802C6.91645 26.3802 6.95962 26.3958 6.99391 26.4243C7.92832 27.224 9.11775 27.6635 10.3476 27.6635C11.5775 27.6635 12.7669 27.224 13.7013 26.4243C13.7389 26.3942 13.7857 26.3777 13.8339 26.3777C13.8822 26.3777 13.929 26.3942 13.9666 26.4243C14.6134 26.672 15.1713 27.1076 15.5685 27.675C15.9656 28.2424 16.1839 28.9157 16.1953 29.6082C16.1953 30.1282 16.1953 30.6695 16.1953 31.2001H4.52108C4.52108 31.2001 4.52108 31.1046 4.52108 31.0621L4.51052 29.6718Z" fill="#D22429"/>
</g>
</g>
</svg>
