<svg width="50" height="51" viewBox="0 0 50 51" fill="none" xmlns="http://www.w3.org/2000/svg">
<g id="Group 41">
<g id="school">
<path id="Vector" d="M3.06285 45.7032V26.276H1.10561C0.34447 26.276 0.000134515 25.9861 0.0182568 25.2068C0.0182568 23.902 0.0182568 22.6153 0.0182568 21.3105C0.0182568 20.5856 0.344454 20.3138 1.0331 20.3138C4.24076 20.3138 7.44844 20.3138 10.638 20.3138C10.9642 20.3138 11.2903 20.6943 11.6165 20.8937C11.2903 21.093 10.9642 21.4555 10.638 21.4555C7.5753 21.4555 4.51261 21.4555 1.34121 21.4555V25.0799H8.31826C9.09686 25.0346 9.87751 25.0346 10.6561 25.0799C11.0004 25.0799 11.2903 25.4605 11.6165 25.6599C11.2903 25.8592 10.9642 26.2217 10.6198 26.2398C8.8076 26.2398 6.99537 26.2398 5.18313 26.2398C4.94167 26.2271 4.69966 26.2271 4.45819 26.2398V45.4857H12.7583V17.9579C12.5923 17.9118 12.4225 17.8815 12.2509 17.8673C9.71376 17.8673 9.71371 17.8673 9.71371 15.2939C9.71371 11.905 9.71372 11.905 13.1207 11.905C13.3716 11.8512 13.631 11.8512 13.8818 11.905C14.1473 12.0665 14.391 12.2614 14.6068 12.485C14.3712 12.7024 14.1537 13.0649 13.9 13.083C12.9757 13.083 12.0877 13.083 11.0185 13.083V16.4718H38.9993V13.083H17.9775C17.6779 13.1377 17.3709 13.1377 17.0714 13.083C16.6863 12.916 16.3164 12.7159 15.9659 12.485C16.3284 12.2675 16.6908 11.8869 17.0532 11.8869C19.4273 11.8869 21.8013 11.8869 24.3022 11.8869C24.3022 11.3795 24.3022 10.9264 24.3022 10.4734C24.3022 7.48317 24.3022 4.49298 24.3022 1.52092C24.3022 0.560439 24.5197 0.1074 25.607 0.125523C28.0173 0.125523 30.4457 0.125523 32.856 0.125523C33.217 0.182277 33.566 0.298641 33.8888 0.469851C33.7761 0.815605 33.6177 1.14474 33.4178 1.44847C32.6929 2.22773 31.8954 2.97071 31.0075 3.84058C31.8592 4.65608 32.6385 5.38097 33.3815 6.16023C33.5923 6.45956 33.7686 6.78177 33.907 7.12071C33.569 7.34136 33.1948 7.50087 32.8015 7.59191C30.6812 7.59191 28.5609 7.59191 26.4406 7.59191C26.1869 7.59191 25.9332 7.59191 25.5889 7.59191V11.7419H28.1441C31.7686 11.7419 35.248 11.7419 38.7819 11.7419C39.8149 11.7419 40.3223 11.9956 40.2317 13.1192C40.1592 14.1993 40.1592 15.283 40.2317 16.3631C40.2317 17.3598 39.9961 17.831 38.9269 17.7223C38.3832 17.7223 37.8214 17.7223 37.1147 17.7223V38.9254C37.1698 39.2675 37.1698 39.6163 37.1147 39.9584C37.0624 40.0852 36.9836 40.1992 36.8836 40.293C36.7836 40.3868 36.6646 40.4581 36.5347 40.5021C36.4079 40.5021 36.0636 40.2484 36.0092 40.049C35.954 39.6644 35.954 39.2738 36.0092 38.8892V17.9579H14.2624V45.6307H20.4059C20.4059 43.021 20.4059 40.4477 20.4059 37.8562C20.4059 35.2647 20.0253 35.4278 22.8343 35.4278C24.6465 35.4278 26.5494 35.4278 28.416 35.4278C29.4671 35.4278 29.8657 35.7178 29.8476 36.8232C29.8476 39.3422 29.8476 41.8431 29.8476 44.3621C29.8476 44.7789 29.8476 45.1957 29.8476 45.685H36.0274C35.9818 44.7855 35.9818 43.8843 36.0274 42.9848C36.0274 42.6586 36.4623 42.3868 36.6979 42.0787C36.8791 42.3868 37.1871 42.6767 37.2053 42.9848C37.2053 43.8366 37.2053 44.6883 37.2053 45.6488H45.5959V26.276H40.3767C39.992 26.3306 39.6015 26.3306 39.2168 26.276C38.905 26.1288 38.6226 25.9262 38.3833 25.678C38.6732 25.4968 38.9631 25.1524 39.2531 25.1343C41.0653 25.1343 42.9682 25.1343 44.8348 25.1343H48.6767V21.5098H40.7573C40.372 21.5557 39.9827 21.5557 39.5974 21.5098C39.1756 21.3472 38.7693 21.1471 38.3833 20.9118C38.7666 20.6417 39.1967 20.445 39.6518 20.3319C42.6783 20.3319 45.7047 20.3319 48.713 20.3319C49.6916 20.3319 50.0177 20.6944 49.9815 21.6367C49.8999 22.7165 49.8999 23.8009 49.9815 24.8806C49.9815 26.0586 49.5647 26.4391 48.4593 26.3304C47.9583 26.3023 47.4561 26.3023 46.9551 26.3304V45.7575C47.6366 45.7029 48.3214 45.7029 49.0029 45.7575C49.3291 45.7575 49.6009 46.1744 49.909 46.3918C49.6387 46.6027 49.3472 46.7849 49.0392 46.9355C48.7808 46.9724 48.5184 46.9724 48.2599 46.9355C32.7472 46.9355 17.2224 46.9355 1.68554 46.9355C1.11563 46.8453 0.564492 46.6617 0.0544816 46.3918C0.571821 46.1462 1.10453 45.9343 1.64926 45.7575C2.11651 45.6823 2.5912 45.6641 3.06285 45.7032ZM21.602 36.642V45.5944H28.3616V36.642H21.602ZM25.6976 1.43033V6.32333H31.7504C31.0074 5.45346 29.9382 4.6742 29.9382 3.89494C29.9382 3.11568 31.0799 2.31833 31.7504 1.43033H25.6976Z" fill="#D22429"/>
<path id="Vector_2" d="M24.9364 50.0886H1.77601C1.43321 50.1344 1.08582 50.1344 0.743022 50.0886C0.472133 49.9488 0.222048 49.7719 0 49.563C0.23559 49.3455 0.416822 49.0375 0.688657 48.9469C1.02472 48.8921 1.36744 48.8921 1.7035 48.9469H48.2779L49.8546 49.5992C49.3848 49.8542 48.8768 50.0317 48.3504 50.1248C40.5699 50.1127 32.7652 50.1007 24.9364 50.0886Z" fill="#D22429"/>
<path id="Vector_3" d="M43.7112 31.6038V31.7307C43.7112 35.2101 43.4575 35.3551 40.0868 34.9021C39.8827 34.8429 39.6964 34.7342 39.5447 34.5856C39.3929 34.4369 39.2802 34.2531 39.2168 34.0503C39.2168 32.3649 39.2168 30.6795 39.2168 28.9942C39.208 28.9523 39.208 28.9091 39.2168 28.8673C40.286 27.5262 41.754 28.5049 43.0226 28.2874C43.2219 28.2874 43.7112 28.9035 43.7655 29.266C43.811 30.0454 43.7929 30.8273 43.7112 31.6038ZM42.4064 33.6516V29.5197H40.4311V33.6516H42.4064Z" fill="#D22429"/>
<path id="Vector_4" d="M10.8373 40.4658C10.8373 44.4164 11.381 43.7096 7.48473 43.8184C6.52425 43.8184 6.16176 43.5284 6.19801 42.5498C6.19801 41.0819 6.19801 39.614 6.19801 38.1461C6.19801 37.385 6.45175 37.0587 7.24914 37.0769C11.5441 37.1493 10.8373 36.4607 10.8373 40.4658ZM9.51443 42.4955V38.4179H7.55718V42.4955H9.51443Z" fill="#D22429"/>
<path id="Vector_5" d="M43.7113 40.4296C43.6025 44.489 44.5267 43.7097 40.1774 43.8184C39.3981 43.8184 39.0901 43.4923 39.0901 42.7311C39.0901 41.227 39.0901 39.7047 39.0901 38.2006C39.0901 37.3669 39.4525 37.0588 40.2861 37.0769C44.4724 37.1675 43.6206 36.4608 43.7113 40.4296ZM42.4064 42.4955V38.3999H40.4311V42.4955H42.4064Z" fill="#D22429"/>
<path id="Vector_6" d="M10.8371 31.5134V31.6402C10.8371 35.5184 11.5077 34.9204 7.21267 34.9023C6.99898 34.8408 6.80485 34.725 6.64922 34.5662C6.4936 34.4074 6.3818 34.211 6.32469 33.9961C6.21596 32.4195 6.32469 30.8066 6.32469 29.2118C6.32469 28.505 6.57837 28.197 7.30326 28.2151C8.12418 28.2604 8.94695 28.2604 9.76787 28.2151C10.7102 28.2151 11.0002 28.5957 10.9459 29.4474C10.8915 30.2992 10.8371 30.8247 10.8371 31.5134ZM7.53886 29.5381V33.6156H9.55041V29.5381H7.53886Z" fill="#D22429"/>
<path id="Vector_7" d="M27.3467 22.7604C27.3467 25.6418 27.3466 25.6418 24.5014 25.6418C22.6892 25.6418 22.6892 25.6418 22.6892 23.8296C22.6892 22.8328 22.6892 21.8361 22.6892 20.8394C22.6892 19.8427 22.9611 19.6977 23.7403 19.752H24.3927C27.3467 19.7702 27.3467 19.7702 27.3467 22.7604ZM23.9578 24.3189H26.0419V21.0388H23.9578V24.3189Z" fill="#D22429"/>
<path id="Vector_8" d="M22.6528 30.4622C22.6528 27.5264 22.6528 27.5264 25.6429 27.5445C27.3464 27.5445 27.3465 27.5445 27.3465 29.2661C27.41 30.3465 27.41 31.4297 27.3465 32.51C27.3465 32.8362 26.8209 33.1806 26.4585 33.4162C26.096 33.6517 25.9692 33.4162 25.6974 33.4162C22.6528 33.4524 22.6528 33.4524 22.6528 30.4622ZM26.0054 32.1476V28.8312H23.9757V32.1295L26.0054 32.1476Z" fill="#D22429"/>
<path id="Vector_9" d="M15.9477 22.2893C15.9477 19.4079 15.4584 19.7522 18.7929 19.7341C20.6958 19.7341 20.6958 19.734 20.6958 21.6731V22.3255C20.6958 25.95 20.3877 26.1856 16.727 25.6057C16.5501 25.5442 16.3904 25.4414 16.2612 25.3059C16.132 25.1704 16.037 25.006 15.984 24.8264C15.9145 23.9825 15.9024 23.1349 15.9477 22.2893ZM17.2706 24.2827H19.3909V21.0389H17.2706V24.2827Z" fill="#D22429"/>
<path id="Vector_10" d="M34.0701 22.7239C34.0701 25.6416 34.0701 25.6416 31.1343 25.6416C29.322 25.6416 29.322 25.6416 29.322 23.8293C29.322 22.8507 29.322 21.854 29.322 20.8573C29.322 19.8606 29.6482 19.7518 30.4093 19.7881H31.0617C34.5774 19.77 34.0338 19.3531 34.0701 22.7239ZM30.5725 24.3368H32.729V21.0385H30.5725V24.3368Z" fill="#D22429"/>
<path id="Vector_11" d="M20.6959 30.6437C20.6959 33.4889 20.6959 33.4889 17.7964 33.4889C15.9841 33.4889 15.9841 33.4889 15.9841 31.5679V28.9945C15.9841 28.7408 15.9841 28.3965 15.9841 28.2334C17.0533 26.9467 18.5212 27.8347 19.7898 27.6172C20.5328 27.5085 20.714 28.0884 20.6959 28.7227V30.6437ZM19.391 32.2022V28.8314H17.2707V32.1297L19.391 32.2022Z" fill="#D22429"/>
<path id="Vector_12" d="M34.0701 30.6437C34.0701 33.5071 34.07 33.507 31.2248 33.507C29.3039 33.507 29.3039 33.507 29.3039 31.6948C29.2858 31.3507 29.2858 31.0059 29.3039 30.6619C29.4126 29.7195 29.3038 28.1247 29.7206 27.9616C30.9045 27.6613 32.1354 27.5937 33.3451 27.7623C33.5988 27.7623 33.9614 28.3241 33.9976 28.6503C34.0725 29.3119 34.0967 29.9784 34.0701 30.6437ZM30.6086 28.8315V32.1298H32.7472V28.8315H30.6086Z" fill="#D22429"/>
</g>
</g>
</svg>
