<svg width="50" height="50" viewBox="0 0 50 50" fill="none" xmlns="http://www.w3.org/2000/svg">
<g id="Group 43">
<g id="sun">
<path id="Vector" d="M36.5989 25.2729C37.0094 30.4263 31.0199 37.2062 25.2585 37.0542C18.585 36.9022 12.1851 31.3384 12.3523 25.1057C12.5347 17.5049 16.9128 13.4308 24.5137 13.0204C30.8679 12.7164 36.5685 18.6906 36.5989 25.2729ZM34.3187 24.6648C34.3187 20.5604 32.7985 18.0369 29.2717 16.5624C25.3801 14.9358 20.9413 15.5134 18.433 18.3105C17.3165 19.5915 16.5056 21.1093 16.0615 22.7495C15.8005 23.7372 15.7374 24.7667 15.8757 25.779C16.014 26.7912 16.3509 27.7661 16.8672 28.6477C17.4449 29.6814 18.2505 30.4415 18.8282 31.3688C19.4117 32.2526 20.1883 32.9924 21.0995 33.5322C22.0106 34.072 23.0325 34.3979 24.088 34.4851C29.667 35.2452 34.2731 30.6543 34.3187 24.6648Z" fill="#D22429"/>
<path id="Vector_2" d="M42.9839 26.2916C42.295 26.2581 41.6092 26.1768 40.9316 26.0483C40.4452 25.9115 39.5939 25.5619 39.6091 25.3491C39.6222 24.7053 39.8901 24.0931 40.354 23.6465C41.144 23.1596 42.0559 22.9066 42.9839 22.9168C44.0962 23.0477 45.1825 23.345 46.2066 23.7985C46.5714 23.9353 47.0427 24.4826 46.9971 24.7714C46.9515 25.0602 46.465 25.5619 46.085 25.6683C44.96 25.9875 43.7895 26.1396 42.9839 26.2916Z" fill="#D22429"/>
<path id="Vector_3" d="M4.56908 26.398C3.42896 26.398 2.0456 26.2612 2 24.969C2 24.3762 3.27694 23.4488 4.14344 23.1448C4.99653 22.9437 5.88182 22.9195 6.74463 23.0738C7.60743 23.228 8.42946 23.5575 9.16001 24.0417C9.30158 24.1425 9.41498 24.2778 9.48949 24.4348C9.56399 24.5918 9.59711 24.7652 9.58566 24.9386C9.53345 25.1009 9.44247 25.248 9.32062 25.3672C9.19878 25.4864 9.04976 25.5741 8.88639 25.6227C7.53345 25.8659 6.01324 26.094 4.56908 26.398Z" fill="#D22429"/>
<path id="Vector_4" d="M22.7354 42.5572C22.933 41.8883 22.933 41.1282 23.2978 40.7786C23.8408 40.3901 24.4853 40.1682 25.1524 40.1401C25.274 40.1401 25.5781 40.9154 25.6541 41.3563C25.8517 42.618 26.0189 43.8797 26.1101 45.1414C26.2112 45.6961 26.1423 46.2684 25.9125 46.7833C25.5663 47.2026 25.0698 47.47 24.5291 47.5281C24.3011 47.5281 23.8299 47.0113 23.7234 46.6464C23.313 45.2935 23.0394 43.9101 22.7354 42.5572Z" fill="#D22429"/>
<path id="Vector_5" d="M23.5862 3.59535C23.8135 3.05596 24.1044 2.54563 24.4527 2.07518C24.6047 1.89276 25.3192 2.07519 25.7144 2.27281C25.8493 2.34467 25.966 2.4464 26.0556 2.57023C26.1451 2.69405 26.2052 2.8367 26.2313 2.98729C26.5522 4.56389 26.7253 6.16702 26.7482 7.7758C26.7482 8.44468 25.7144 9.08313 25.0607 9.61519C24.9695 9.7064 24.3615 9.14397 23.9814 8.88554C23.9814 8.88554 23.9814 8.79434 23.9814 8.74873C23.8598 7.18296 23.7382 5.63237 23.5862 3.59535Z" fill="#D22429"/>
<path id="Vector_6" d="M12.9605 35.4277C14.6174 35.4277 14.7543 35.5949 13.9182 37.0847C13.3971 38.0381 12.7643 38.9261 12.0331 39.7298C11.8083 39.9111 11.5427 40.0349 11.2593 40.0905C10.9759 40.1461 10.6833 40.1319 10.4066 40.0491C10.1563 39.874 9.94567 39.6481 9.78852 39.3862C9.63136 39.1242 9.53118 38.8321 9.49449 38.5289C9.40328 36.6287 10.7866 35.5189 12.9605 35.4277Z" fill="#D22429"/>
<path id="Vector_7" d="M15.0125 14.7533C12.9755 14.7533 11.2273 13.2332 9.85913 10.6641C10.1612 10.245 10.6164 9.96198 11.1259 9.87659C11.6354 9.7912 12.1581 9.91032 12.5802 10.2081C13.4303 10.5912 14.1297 11.2448 14.5697 12.0669C15.0096 12.889 15.1653 13.8335 15.0125 14.7533Z" fill="#D22429"/>
<path id="Vector_8" d="M39.229 39.988C36.9488 39.988 35.8695 38.3006 34.6685 36.8412C34.3341 36.4156 34.4861 35.5947 34.4253 34.9258C37.7393 35.1538 39.8371 37.4493 39.229 39.988Z" fill="#D22429"/>
<path id="Vector_9" d="M39.7912 10.938C39.0464 12.0325 38.3927 13.127 37.587 14.0999C37.0093 14.7992 36.0668 15.2248 35.3523 14.5256C35.1398 14.219 34.997 13.8696 34.9339 13.5019C34.8709 13.1342 34.8892 12.7572 34.9875 12.3973C35.1358 11.9255 35.397 11.4969 35.7484 11.1488C36.0999 10.8007 36.5309 10.5436 37.0042 10.3999C37.4775 10.2561 37.9787 10.2299 38.4644 10.3237C38.9501 10.4175 39.4055 10.6283 39.7912 10.938Z" fill="#D22429"/>
</g>
</g>
</svg>
